<mxfile host="app.diagrams.net" modified="2024-04-21T10:17:40.567Z" agent="Mozilla/5.0 (Macintosh; Intel Mac OS X 10_15_7) AppleWebKit/537.36 (KHTML, like Gecko) Chrome/123.0.0.0 Safari/537.36" etag="eqVky4vTUDQGYq2moB0b" version="24.2.1" type="device">
  <diagram name="Page-1" id="kUoaZVSaIM8jBwo6_06R">
    <mxGraphModel dx="3130" dy="1444" grid="1" gridSize="10" guides="1" tooltips="1" connect="1" arrows="1" fold="1" page="1" pageScale="1" pageWidth="850" pageHeight="1100" math="0" shadow="0">
      <root>
        <mxCell id="0" />
        <mxCell id="1" parent="0" />
        <mxCell id="AZz04ajsxEkcm6U48fvL-23" style="edgeStyle=orthogonalEdgeStyle;rounded=0;orthogonalLoop=1;jettySize=auto;html=1;" edge="1" parent="1" source="AZz04ajsxEkcm6U48fvL-2" target="AZz04ajsxEkcm6U48fvL-4">
          <mxGeometry relative="1" as="geometry" />
        </mxCell>
        <mxCell id="AZz04ajsxEkcm6U48fvL-2" value="User" style="shape=umlActor;verticalLabelPosition=bottom;verticalAlign=top;html=1;outlineConnect=0;" vertex="1" parent="1">
          <mxGeometry x="-140" y="275" width="30" height="60" as="geometry" />
        </mxCell>
        <mxCell id="AZz04ajsxEkcm6U48fvL-4" value="Route 53" style="sketch=0;points=[[0,0,0],[0.25,0,0],[0.5,0,0],[0.75,0,0],[1,0,0],[0,1,0],[0.25,1,0],[0.5,1,0],[0.75,1,0],[1,1,0],[0,0.25,0],[0,0.5,0],[0,0.75,0],[1,0.25,0],[1,0.5,0],[1,0.75,0]];outlineConnect=0;fontColor=#232F3E;fillColor=#8C4FFF;strokeColor=#ffffff;dashed=0;verticalLabelPosition=bottom;verticalAlign=top;align=center;html=1;fontSize=12;fontStyle=0;aspect=fixed;shape=mxgraph.aws4.resourceIcon;resIcon=mxgraph.aws4.route_53;" vertex="1" parent="1">
          <mxGeometry x="-340" y="266" width="78" height="78" as="geometry" />
        </mxCell>
        <mxCell id="AZz04ajsxEkcm6U48fvL-10" value="VPC" style="sketch=0;outlineConnect=0;gradientColor=none;html=1;whiteSpace=wrap;fontSize=12;fontStyle=0;shape=mxgraph.aws4.group;grIcon=mxgraph.aws4.group_vpc;strokeColor=#879196;fillColor=none;verticalAlign=top;align=left;spacingLeft=30;fontColor=#879196;dashed=0;" vertex="1" parent="1">
          <mxGeometry width="880" height="1100" as="geometry" />
        </mxCell>
        <mxCell id="AZz04ajsxEkcm6U48fvL-12" value="Availability zone (eu-central-1a)" style="sketch=0;outlineConnect=0;gradientColor=none;html=1;whiteSpace=wrap;fontSize=12;fontStyle=0;shape=mxgraph.aws4.group;grIcon=mxgraph.aws4.group_availability_zone;strokeColor=#545B64;fillColor=none;verticalAlign=top;align=left;spacingLeft=30;fontColor=#545B64;dashed=1;strokeWidth=2;" vertex="1" parent="1">
          <mxGeometry x="40" y="40" width="790" height="920" as="geometry" />
        </mxCell>
        <mxCell id="AZz04ajsxEkcm6U48fvL-14" value="Public subnet A" style="points=[[0,0],[0.25,0],[0.5,0],[0.75,0],[1,0],[1,0.25],[1,0.5],[1,0.75],[1,1],[0.75,1],[0.5,1],[0.25,1],[0,1],[0,0.75],[0,0.5],[0,0.25]];outlineConnect=0;gradientColor=none;html=1;whiteSpace=wrap;fontSize=12;fontStyle=0;container=1;pointerEvents=0;collapsible=0;recursiveResize=0;shape=mxgraph.aws4.group;grIcon=mxgraph.aws4.group_security_group;grStroke=0;strokeColor=#7AA116;fillColor=#F2F6E8;verticalAlign=top;align=left;spacingLeft=30;fontColor=#248814;dashed=0;" vertex="1" parent="1">
          <mxGeometry x="80" y="80" width="720" height="320" as="geometry" />
        </mxCell>
        <mxCell id="AZz04ajsxEkcm6U48fvL-50" value="Route table" style="outlineConnect=0;dashed=0;verticalLabelPosition=bottom;verticalAlign=top;align=center;html=1;shape=mxgraph.aws3.route_table;fillColor=#F58536;gradientColor=none;fontStyle=1" vertex="1" parent="AZz04ajsxEkcm6U48fvL-14">
          <mxGeometry x="31" y="65" width="75" height="69" as="geometry" />
        </mxCell>
        <mxCell id="AZz04ajsxEkcm6U48fvL-55" value="ALB" style="outlineConnect=0;dashed=0;verticalLabelPosition=bottom;verticalAlign=top;align=center;html=1;shape=mxgraph.aws3.application_load_balancer;fillColor=#F58534;gradientColor=none;" vertex="1" parent="AZz04ajsxEkcm6U48fvL-14">
          <mxGeometry x="34" y="190" width="69" height="72" as="geometry" />
        </mxCell>
        <mxCell id="AZz04ajsxEkcm6U48fvL-60" value="ALB Security Group" style="fontStyle=0;verticalAlign=top;align=center;spacingTop=-2;fillColor=none;rounded=0;whiteSpace=wrap;html=1;strokeColor=#FF0000;strokeWidth=2;dashed=1;container=1;collapsible=0;expand=0;recursiveResize=0;" vertex="1" parent="AZz04ajsxEkcm6U48fvL-14">
          <mxGeometry x="10" y="170" width="120" height="120" as="geometry" />
        </mxCell>
        <mxCell id="AZz04ajsxEkcm6U48fvL-17" value="Private subnet A" style="points=[[0,0],[0.25,0],[0.5,0],[0.75,0],[1,0],[1,0.25],[1,0.5],[1,0.75],[1,1],[0.75,1],[0.5,1],[0.25,1],[0,1],[0,0.75],[0,0.5],[0,0.25]];outlineConnect=0;gradientColor=none;html=1;whiteSpace=wrap;fontSize=12;fontStyle=0;container=1;pointerEvents=0;collapsible=0;recursiveResize=0;shape=mxgraph.aws4.group;grIcon=mxgraph.aws4.group_security_group;grStroke=0;strokeColor=#00A4A6;fillColor=#E6F6F7;verticalAlign=top;align=left;spacingLeft=30;fontColor=#147EBA;dashed=0;" vertex="1" parent="1">
          <mxGeometry x="80" y="440" width="720" height="480" as="geometry" />
        </mxCell>
        <mxCell id="AZz04ajsxEkcm6U48fvL-61" value="Elasticache (redis)" style="sketch=0;points=[[0,0,0],[0.25,0,0],[0.5,0,0],[0.75,0,0],[1,0,0],[0,1,0],[0.25,1,0],[0.5,1,0],[0.75,1,0],[1,1,0],[0,0.25,0],[0,0.5,0],[0,0.75,0],[1,0.25,0],[1,0.5,0],[1,0.75,0]];outlineConnect=0;fontColor=#232F3E;fillColor=#C925D1;strokeColor=#ffffff;dashed=0;verticalLabelPosition=bottom;verticalAlign=top;align=center;html=1;fontSize=12;fontStyle=0;aspect=fixed;shape=mxgraph.aws4.resourceIcon;resIcon=mxgraph.aws4.elasticache;" vertex="1" parent="AZz04ajsxEkcm6U48fvL-17">
          <mxGeometry x="600" y="226.5" width="78" height="78" as="geometry" />
        </mxCell>
        <mxCell id="AZz04ajsxEkcm6U48fvL-28" value="Auto Scaling group" style="points=[[0,0],[0.25,0],[0.5,0],[0.75,0],[1,0],[1,0.25],[1,0.5],[1,0.75],[1,1],[0.75,1],[0.5,1],[0.25,1],[0,1],[0,0.75],[0,0.5],[0,0.25]];outlineConnect=0;gradientColor=none;html=1;whiteSpace=wrap;fontSize=12;fontStyle=0;container=1;pointerEvents=0;collapsible=0;recursiveResize=0;shape=mxgraph.aws4.groupCenter;grIcon=mxgraph.aws4.group_auto_scaling_group;grStroke=1;strokeColor=#D86613;fillColor=none;verticalAlign=top;align=center;fontColor=#D86613;dashed=1;spacingTop=25;strokeWidth=3;" vertex="1" parent="AZz04ajsxEkcm6U48fvL-17">
          <mxGeometry x="160" y="100" width="326" height="350" as="geometry" />
        </mxCell>
        <mxCell id="AZz04ajsxEkcm6U48fvL-31" value="EC2 Security Group" style="fontStyle=0;verticalAlign=top;align=center;spacingTop=-2;fillColor=none;rounded=0;whiteSpace=wrap;html=1;strokeColor=#FF0000;strokeWidth=1;dashed=1;container=1;collapsible=0;expand=0;recursiveResize=0;" vertex="1" parent="AZz04ajsxEkcm6U48fvL-28">
          <mxGeometry x="38" y="55" width="250" height="240" as="geometry" />
        </mxCell>
        <mxCell id="AZz04ajsxEkcm6U48fvL-32" value="EC2 instances" style="outlineConnect=0;dashed=0;verticalLabelPosition=bottom;verticalAlign=top;align=center;html=1;shape=mxgraph.aws3.ec2;fillColor=#F58534;gradientColor=none;" vertex="1" parent="AZz04ajsxEkcm6U48fvL-31">
          <mxGeometry x="82" y="71.5" width="76.5" height="93" as="geometry" />
        </mxCell>
        <mxCell id="AZz04ajsxEkcm6U48fvL-63" style="edgeStyle=orthogonalEdgeStyle;rounded=0;orthogonalLoop=1;jettySize=auto;html=1;" edge="1" parent="AZz04ajsxEkcm6U48fvL-17" source="AZz04ajsxEkcm6U48fvL-32" target="AZz04ajsxEkcm6U48fvL-61">
          <mxGeometry relative="1" as="geometry" />
        </mxCell>
        <mxCell id="AZz04ajsxEkcm6U48fvL-64" value="sync messages&lt;br&gt;between ec2 insatances" style="edgeLabel;html=1;align=center;verticalAlign=middle;resizable=0;points=[];" vertex="1" connectable="0" parent="AZz04ajsxEkcm6U48fvL-63">
          <mxGeometry x="0.0364" y="-1" relative="1" as="geometry">
            <mxPoint x="15" y="-1" as="offset" />
          </mxGeometry>
        </mxCell>
        <mxCell id="AZz04ajsxEkcm6U48fvL-34" value="ECR" style="sketch=0;points=[[0,0,0],[0.25,0,0],[0.5,0,0],[0.75,0,0],[1,0,0],[0,1,0],[0.25,1,0],[0.5,1,0],[0.75,1,0],[1,1,0],[0,0.25,0],[0,0.5,0],[0,0.75,0],[1,0.25,0],[1,0.5,0],[1,0.75,0]];outlineConnect=0;fontColor=#232F3E;fillColor=#ED7100;strokeColor=#ffffff;dashed=0;verticalLabelPosition=bottom;verticalAlign=top;align=center;html=1;fontSize=12;fontStyle=0;aspect=fixed;shape=mxgraph.aws4.resourceIcon;resIcon=mxgraph.aws4.ecr;" vertex="1" parent="1">
          <mxGeometry x="-282" y="615" width="78" height="78" as="geometry" />
        </mxCell>
        <mxCell id="AZz04ajsxEkcm6U48fvL-35" value="S3" style="outlineConnect=0;dashed=0;verticalLabelPosition=bottom;verticalAlign=top;align=center;html=1;shape=mxgraph.aws3.s3;fillColor=#E05243;gradientColor=none;" vertex="1" parent="1">
          <mxGeometry x="-282" y="732.5" width="76.5" height="93" as="geometry" />
        </mxCell>
        <mxCell id="AZz04ajsxEkcm6U48fvL-36" value="ECR Enpoint" style="sketch=0;outlineConnect=0;fontColor=#232F3E;gradientColor=none;fillColor=#8C4FFF;strokeColor=none;dashed=0;verticalLabelPosition=bottom;verticalAlign=top;align=center;html=1;fontSize=12;fontStyle=1;aspect=fixed;pointerEvents=1;shape=mxgraph.aws4.endpoints;" vertex="1" parent="1">
          <mxGeometry x="-40" y="636" width="78" height="78" as="geometry" />
        </mxCell>
        <mxCell id="AZz04ajsxEkcm6U48fvL-37" value="S3 Endpoint&lt;div&gt;&lt;br&gt;&lt;/div&gt;" style="sketch=0;outlineConnect=0;fontColor=#232F3E;gradientColor=none;fillColor=#8C4FFF;strokeColor=none;dashed=0;verticalLabelPosition=bottom;verticalAlign=top;align=center;html=1;fontSize=12;fontStyle=1;aspect=fixed;pointerEvents=1;shape=mxgraph.aws4.endpoints;" vertex="1" parent="1">
          <mxGeometry x="-40" y="740" width="78" height="78" as="geometry" />
        </mxCell>
        <mxCell id="AZz04ajsxEkcm6U48fvL-40" value="IAM Role" style="sketch=0;outlineConnect=0;fontColor=#232F3E;gradientColor=none;fillColor=#DD344C;strokeColor=none;dashed=0;verticalLabelPosition=bottom;verticalAlign=top;align=center;html=1;fontSize=12;fontStyle=0;aspect=fixed;pointerEvents=1;shape=mxgraph.aws4.role;" vertex="1" parent="1">
          <mxGeometry x="360" y="1020" width="78" height="44" as="geometry" />
        </mxCell>
        <mxCell id="AZz04ajsxEkcm6U48fvL-41" style="edgeStyle=orthogonalEdgeStyle;rounded=0;orthogonalLoop=1;jettySize=auto;html=1;" edge="1" parent="1" source="AZz04ajsxEkcm6U48fvL-32" target="AZz04ajsxEkcm6U48fvL-40">
          <mxGeometry relative="1" as="geometry" />
        </mxCell>
        <mxCell id="AZz04ajsxEkcm6U48fvL-65" value="IAM role&amp;nbsp;&lt;br&gt;for accessing ECR &amp;amp; S3" style="edgeLabel;html=1;align=center;verticalAlign=middle;resizable=0;points=[];" vertex="1" connectable="0" parent="AZz04ajsxEkcm6U48fvL-41">
          <mxGeometry x="-0.0836" relative="1" as="geometry">
            <mxPoint y="1" as="offset" />
          </mxGeometry>
        </mxCell>
        <mxCell id="AZz04ajsxEkcm6U48fvL-42" style="edgeStyle=orthogonalEdgeStyle;rounded=0;orthogonalLoop=1;jettySize=auto;html=1;exitX=0;exitY=0.5;exitDx=0;exitDy=0;exitPerimeter=0;" edge="1" parent="1" source="AZz04ajsxEkcm6U48fvL-32" target="AZz04ajsxEkcm6U48fvL-36">
          <mxGeometry relative="1" as="geometry" />
        </mxCell>
        <mxCell id="AZz04ajsxEkcm6U48fvL-47" value="Pull Image metadata" style="edgeLabel;html=1;align=center;verticalAlign=middle;resizable=0;points=[];" vertex="1" connectable="0" parent="AZz04ajsxEkcm6U48fvL-42">
          <mxGeometry x="-0.2058" y="1" relative="1" as="geometry">
            <mxPoint x="-20" y="-12" as="offset" />
          </mxGeometry>
        </mxCell>
        <mxCell id="AZz04ajsxEkcm6U48fvL-44" style="edgeStyle=orthogonalEdgeStyle;rounded=0;orthogonalLoop=1;jettySize=auto;html=1;exitX=0;exitY=0.79;exitDx=0;exitDy=0;exitPerimeter=0;" edge="1" parent="1" source="AZz04ajsxEkcm6U48fvL-32" target="AZz04ajsxEkcm6U48fvL-37">
          <mxGeometry relative="1" as="geometry" />
        </mxCell>
        <mxCell id="AZz04ajsxEkcm6U48fvL-48" value="Download image" style="edgeLabel;html=1;align=center;verticalAlign=middle;resizable=0;points=[];" vertex="1" connectable="0" parent="AZz04ajsxEkcm6U48fvL-44">
          <mxGeometry x="-0.1076" relative="1" as="geometry">
            <mxPoint x="1" y="15" as="offset" />
          </mxGeometry>
        </mxCell>
        <mxCell id="AZz04ajsxEkcm6U48fvL-45" style="edgeStyle=orthogonalEdgeStyle;rounded=0;orthogonalLoop=1;jettySize=auto;html=1;entryX=1;entryY=0.5;entryDx=0;entryDy=0;entryPerimeter=0;" edge="1" parent="1" source="AZz04ajsxEkcm6U48fvL-36" target="AZz04ajsxEkcm6U48fvL-34">
          <mxGeometry relative="1" as="geometry" />
        </mxCell>
        <mxCell id="AZz04ajsxEkcm6U48fvL-46" style="edgeStyle=orthogonalEdgeStyle;rounded=0;orthogonalLoop=1;jettySize=auto;html=1;entryX=1;entryY=0.5;entryDx=0;entryDy=0;entryPerimeter=0;" edge="1" parent="1" source="AZz04ajsxEkcm6U48fvL-37" target="AZz04ajsxEkcm6U48fvL-35">
          <mxGeometry relative="1" as="geometry" />
        </mxCell>
        <mxCell id="AZz04ajsxEkcm6U48fvL-49" value="Internet Gateway" style="outlineConnect=0;dashed=0;verticalLabelPosition=bottom;verticalAlign=top;align=center;html=1;shape=mxgraph.aws3.internet_gateway;fillColor=#F58536;gradientColor=none;" vertex="1" parent="1">
          <mxGeometry x="-40" y="143" width="69" height="72" as="geometry" />
        </mxCell>
        <mxCell id="AZz04ajsxEkcm6U48fvL-54" style="edgeStyle=orthogonalEdgeStyle;rounded=0;orthogonalLoop=1;jettySize=auto;html=1;" edge="1" parent="1" source="AZz04ajsxEkcm6U48fvL-50" target="AZz04ajsxEkcm6U48fvL-49">
          <mxGeometry relative="1" as="geometry" />
        </mxCell>
        <mxCell id="AZz04ajsxEkcm6U48fvL-58" style="edgeStyle=orthogonalEdgeStyle;rounded=0;orthogonalLoop=1;jettySize=auto;html=1;" edge="1" parent="1" source="AZz04ajsxEkcm6U48fvL-2" target="AZz04ajsxEkcm6U48fvL-55">
          <mxGeometry relative="1" as="geometry" />
        </mxCell>
        <mxCell id="AZz04ajsxEkcm6U48fvL-59" style="edgeStyle=orthogonalEdgeStyle;rounded=0;orthogonalLoop=1;jettySize=auto;html=1;exitX=1;exitY=0.5;exitDx=0;exitDy=0;exitPerimeter=0;entryX=0.5;entryY=0;entryDx=0;entryDy=0;entryPerimeter=0;" edge="1" parent="1" source="AZz04ajsxEkcm6U48fvL-55" target="AZz04ajsxEkcm6U48fvL-32">
          <mxGeometry relative="1" as="geometry" />
        </mxCell>
        <mxCell id="AZz04ajsxEkcm6U48fvL-67" style="edgeStyle=orthogonalEdgeStyle;rounded=0;orthogonalLoop=1;jettySize=auto;html=1;" edge="1" parent="1" source="AZz04ajsxEkcm6U48fvL-66" target="AZz04ajsxEkcm6U48fvL-37">
          <mxGeometry relative="1" as="geometry" />
        </mxCell>
        <mxCell id="AZz04ajsxEkcm6U48fvL-66" value="Route table" style="outlineConnect=0;dashed=0;verticalLabelPosition=bottom;verticalAlign=top;align=center;html=1;shape=mxgraph.aws3.route_table;fillColor=#F58536;gradientColor=none;fontStyle=1" vertex="1" parent="1">
          <mxGeometry x="100" y="810" width="75" height="69" as="geometry" />
        </mxCell>
        <mxCell id="AZz04ajsxEkcm6U48fvL-69" value="DynamoDB" style="outlineConnect=0;dashed=0;verticalLabelPosition=bottom;verticalAlign=top;align=center;html=1;shape=mxgraph.aws3.dynamo_db;fillColor=#2E73B8;gradientColor=none;" vertex="1" parent="1">
          <mxGeometry x="-279" y="460" width="72" height="81" as="geometry" />
        </mxCell>
        <mxCell id="AZz04ajsxEkcm6U48fvL-70" value="DynamoDB&amp;nbsp;&lt;br&gt;Endpoint" style="sketch=0;outlineConnect=0;fontColor=#232F3E;gradientColor=none;fillColor=#8C4FFF;strokeColor=none;dashed=0;verticalLabelPosition=bottom;verticalAlign=top;align=center;html=1;fontSize=12;fontStyle=1;aspect=fixed;pointerEvents=1;shape=mxgraph.aws4.endpoints;" vertex="1" parent="1">
          <mxGeometry x="-40" y="520" width="78" height="78" as="geometry" />
        </mxCell>
        <mxCell id="AZz04ajsxEkcm6U48fvL-72" style="edgeStyle=orthogonalEdgeStyle;rounded=0;orthogonalLoop=1;jettySize=auto;html=1;exitX=0;exitY=0.21;exitDx=0;exitDy=0;exitPerimeter=0;" edge="1" parent="1" source="AZz04ajsxEkcm6U48fvL-32" target="AZz04ajsxEkcm6U48fvL-70">
          <mxGeometry relative="1" as="geometry">
            <Array as="points">
              <mxPoint x="220" y="686" />
              <mxPoint x="220" y="560" />
            </Array>
          </mxGeometry>
        </mxCell>
        <mxCell id="AZz04ajsxEkcm6U48fvL-73" value="DB access" style="edgeLabel;html=1;align=center;verticalAlign=middle;resizable=0;points=[];" vertex="1" connectable="0" parent="AZz04ajsxEkcm6U48fvL-72">
          <mxGeometry x="-0.0074" y="2" relative="1" as="geometry">
            <mxPoint y="-1" as="offset" />
          </mxGeometry>
        </mxCell>
        <mxCell id="AZz04ajsxEkcm6U48fvL-74" style="edgeStyle=orthogonalEdgeStyle;rounded=0;orthogonalLoop=1;jettySize=auto;html=1;entryX=1;entryY=0.5;entryDx=0;entryDy=0;entryPerimeter=0;" edge="1" parent="1" source="AZz04ajsxEkcm6U48fvL-70" target="AZz04ajsxEkcm6U48fvL-69">
          <mxGeometry relative="1" as="geometry" />
        </mxCell>
      </root>
    </mxGraphModel>
  </diagram>
</mxfile>
